<mxfile host="app.diagrams.net" modified="2022-06-22T10:25:13.641Z" agent="5.0 (X11; Linux x86_64) AppleWebKit/537.36 (KHTML, like Gecko) Chrome/102.0.0.0 Safari/537.36" etag="I3SCvIy0GZHaKmuJmlJw" version="20.0.2" type="github">
  <diagram id="R2lEEEUBdFMjLlhIrx00" name="Page-1">
    <mxGraphModel dx="1700" dy="418" grid="1" gridSize="10" guides="1" tooltips="1" connect="1" arrows="1" fold="1" page="1" pageScale="1" pageWidth="850" pageHeight="1100" math="0" shadow="0" extFonts="Permanent Marker^https://fonts.googleapis.com/css?family=Permanent+Marker">
      <root>
        <mxCell id="0" />
        <mxCell id="1" parent="0" />
        <mxCell id="627nwjCK-Lk3CUR_q3PW-1" value="Book" style="rounded=0;whiteSpace=wrap;html=1;fillColor=#d5e8d4;strokeColor=#82b366;" parent="1" vertex="1">
          <mxGeometry x="-67.5" y="595" width="120" height="60" as="geometry" />
        </mxCell>
        <mxCell id="627nwjCK-Lk3CUR_q3PW-2" value="Publication" style="rounded=0;whiteSpace=wrap;html=1;fillColor=#d5e8d4;strokeColor=#82b366;" parent="1" vertex="1">
          <mxGeometry x="330" y="465" width="120" height="60" as="geometry" />
        </mxCell>
        <mxCell id="CtvvaNPGMJ7My_9c88Tm-3" value="Users" style="rounded=0;whiteSpace=wrap;html=1;fillColor=#d5e8d4;strokeColor=#82b366;" parent="1" vertex="1">
          <mxGeometry x="-400" y="215" width="120" height="60" as="geometry" />
        </mxCell>
        <mxCell id="CtvvaNPGMJ7My_9c88Tm-4" value="Author" style="rounded=0;whiteSpace=wrap;html=1;fillColor=#d5e8d4;strokeColor=#82b366;" parent="1" vertex="1">
          <mxGeometry x="-62.5" y="180" width="120" height="60" as="geometry" />
        </mxCell>
        <mxCell id="CtvvaNPGMJ7My_9c88Tm-10" value="AuthorOfBook" style="rhombus;whiteSpace=wrap;html=1;fillColor=#ffe6cc;strokeColor=#d79b00;" parent="1" vertex="1">
          <mxGeometry x="-70" y="415" width="130" height="80" as="geometry" />
        </mxCell>
        <mxCell id="CtvvaNPGMJ7My_9c88Tm-11" value="" style="endArrow=none;html=1;rounded=0;entryX=0.5;entryY=1;entryDx=0;entryDy=0;" parent="1" source="CtvvaNPGMJ7My_9c88Tm-10" target="CtvvaNPGMJ7My_9c88Tm-4" edge="1">
          <mxGeometry width="50" height="50" relative="1" as="geometry">
            <mxPoint x="-70" y="435" as="sourcePoint" />
            <mxPoint x="-20" y="385" as="targetPoint" />
          </mxGeometry>
        </mxCell>
        <mxCell id="CtvvaNPGMJ7My_9c88Tm-14" value="" style="endArrow=none;html=1;rounded=0;exitX=0.5;exitY=1;exitDx=0;exitDy=0;" parent="1" source="CtvvaNPGMJ7My_9c88Tm-10" target="627nwjCK-Lk3CUR_q3PW-1" edge="1">
          <mxGeometry width="50" height="50" relative="1" as="geometry">
            <mxPoint x="-70" y="435" as="sourcePoint" />
            <mxPoint x="-20" y="385" as="targetPoint" />
          </mxGeometry>
        </mxCell>
        <mxCell id="CtvvaNPGMJ7My_9c88Tm-15" value="following" style="rhombus;whiteSpace=wrap;html=1;fillColor=#ffe6cc;strokeColor=#d79b00;" parent="1" vertex="1">
          <mxGeometry x="-600" y="215" width="80" height="80" as="geometry" />
        </mxCell>
        <mxCell id="CtvvaNPGMJ7My_9c88Tm-16" value="" style="endArrow=none;html=1;rounded=0;exitX=0.5;exitY=1;exitDx=0;exitDy=0;" parent="1" source="CtvvaNPGMJ7My_9c88Tm-3" target="CtvvaNPGMJ7My_9c88Tm-15" edge="1">
          <mxGeometry width="50" height="50" relative="1" as="geometry">
            <mxPoint x="-260" y="225" as="sourcePoint" />
            <mxPoint x="-630" y="305" as="targetPoint" />
            <Array as="points">
              <mxPoint x="-340" y="305" />
              <mxPoint x="-560" y="305" />
            </Array>
          </mxGeometry>
        </mxCell>
        <mxCell id="CtvvaNPGMJ7My_9c88Tm-17" value="" style="endArrow=none;html=1;rounded=0;" parent="1" edge="1">
          <mxGeometry width="50" height="50" relative="1" as="geometry">
            <mxPoint x="-565" y="195" as="sourcePoint" />
            <mxPoint x="-395" y="195" as="targetPoint" />
          </mxGeometry>
        </mxCell>
        <mxCell id="CtvvaNPGMJ7My_9c88Tm-18" value="" style="endArrow=none;html=1;rounded=0;exitX=0.075;exitY=0.017;exitDx=0;exitDy=0;exitPerimeter=0;" parent="1" source="CtvvaNPGMJ7My_9c88Tm-3" edge="1">
          <mxGeometry width="50" height="50" relative="1" as="geometry">
            <mxPoint x="-390" y="205" as="sourcePoint" />
            <mxPoint x="-400" y="190" as="targetPoint" />
          </mxGeometry>
        </mxCell>
        <mxCell id="CtvvaNPGMJ7My_9c88Tm-19" value="" style="endArrow=none;html=1;rounded=0;" parent="1" source="CtvvaNPGMJ7My_9c88Tm-15" edge="1">
          <mxGeometry width="50" height="50" relative="1" as="geometry">
            <mxPoint x="-280" y="195" as="sourcePoint" />
            <mxPoint x="-560" y="200" as="targetPoint" />
          </mxGeometry>
        </mxCell>
        <mxCell id="CtvvaNPGMJ7My_9c88Tm-20" value="Follows" style="text;html=1;strokeColor=none;fillColor=none;align=center;verticalAlign=middle;whiteSpace=wrap;rounded=0;" parent="1" vertex="1">
          <mxGeometry x="-500" y="305" width="60" height="30" as="geometry" />
        </mxCell>
        <mxCell id="CtvvaNPGMJ7My_9c88Tm-21" value="Followed by" style="text;html=1;strokeColor=none;fillColor=none;align=center;verticalAlign=middle;whiteSpace=wrap;rounded=0;" parent="1" vertex="1">
          <mxGeometry x="-510" y="145" width="60" height="30" as="geometry" />
        </mxCell>
        <mxCell id="CtvvaNPGMJ7My_9c88Tm-22" value="Transaction" style="rhombus;whiteSpace=wrap;html=1;fillColor=#ffe6cc;strokeColor=#d79b00;" parent="1" vertex="1">
          <mxGeometry x="-350" y="425" width="80" height="80" as="geometry" />
        </mxCell>
        <mxCell id="CtvvaNPGMJ7My_9c88Tm-24" value="" style="endArrow=none;html=1;rounded=0;exitX=0.5;exitY=1;exitDx=0;exitDy=0;" parent="1" source="CtvvaNPGMJ7My_9c88Tm-22" edge="1">
          <mxGeometry width="50" height="50" relative="1" as="geometry">
            <mxPoint x="-80" y="485" as="sourcePoint" />
            <mxPoint x="-310" y="615" as="targetPoint" />
          </mxGeometry>
        </mxCell>
        <mxCell id="CtvvaNPGMJ7My_9c88Tm-25" value="" style="endArrow=none;html=1;rounded=0;entryX=-0.012;entryY=0.383;entryDx=0;entryDy=0;entryPerimeter=0;" parent="1" target="627nwjCK-Lk3CUR_q3PW-1" edge="1">
          <mxGeometry width="50" height="50" relative="1" as="geometry">
            <mxPoint x="-310" y="615" as="sourcePoint" />
            <mxPoint x="-30" y="435" as="targetPoint" />
          </mxGeometry>
        </mxCell>
        <mxCell id="RWPysZZRdbQjG4ovfCux-3" value="Name" style="ellipse;whiteSpace=wrap;html=1;" parent="1" vertex="1">
          <mxGeometry x="570" y="565" width="110" height="40" as="geometry" />
        </mxCell>
        <mxCell id="RWPysZZRdbQjG4ovfCux-4" value="&lt;u&gt;Publication_id&lt;/u&gt;" style="ellipse;whiteSpace=wrap;html=1;" parent="1" vertex="1">
          <mxGeometry x="560" y="475" width="110" height="40" as="geometry" />
        </mxCell>
        <mxCell id="RWPysZZRdbQjG4ovfCux-6" value="Genre" style="ellipse;whiteSpace=wrap;html=1;" parent="1" vertex="1">
          <mxGeometry x="240" y="555" width="110" height="40" as="geometry" />
        </mxCell>
        <mxCell id="RWPysZZRdbQjG4ovfCux-7" value="Name" style="ellipse;whiteSpace=wrap;html=1;" parent="1" vertex="1">
          <mxGeometry x="-250" y="550" width="110" height="40" as="geometry" />
        </mxCell>
        <mxCell id="RWPysZZRdbQjG4ovfCux-9" value="Edition" style="ellipse;whiteSpace=wrap;html=1;" parent="1" vertex="1">
          <mxGeometry x="230" y="700" width="110" height="40" as="geometry" />
        </mxCell>
        <mxCell id="RWPysZZRdbQjG4ovfCux-10" value="Quantity_available" style="ellipse;whiteSpace=wrap;html=1;" parent="1" vertex="1">
          <mxGeometry x="-280" y="735" width="110" height="40" as="geometry" />
        </mxCell>
        <mxCell id="RWPysZZRdbQjG4ovfCux-12" value="Language" style="ellipse;whiteSpace=wrap;html=1;" parent="1" vertex="1">
          <mxGeometry x="230" y="630" width="110" height="40" as="geometry" />
        </mxCell>
        <mxCell id="RWPysZZRdbQjG4ovfCux-13" value="&lt;u&gt;isbn&lt;/u&gt;" style="ellipse;whiteSpace=wrap;html=1;" parent="1" vertex="1">
          <mxGeometry x="130" y="775" width="110" height="40" as="geometry" />
        </mxCell>
        <mxCell id="RWPysZZRdbQjG4ovfCux-18" value="" style="endArrow=none;html=1;rounded=0;exitX=1;exitY=1;exitDx=0;exitDy=0;entryX=0;entryY=0.5;entryDx=0;entryDy=0;" parent="1" source="627nwjCK-Lk3CUR_q3PW-2" target="RWPysZZRdbQjG4ovfCux-3" edge="1">
          <mxGeometry width="50" height="50" relative="1" as="geometry">
            <mxPoint x="360" y="535" as="sourcePoint" />
            <mxPoint x="410" y="485" as="targetPoint" />
          </mxGeometry>
        </mxCell>
        <mxCell id="RWPysZZRdbQjG4ovfCux-19" value="" style="endArrow=none;html=1;rounded=0;exitX=1;exitY=0.5;exitDx=0;exitDy=0;entryX=0;entryY=0.5;entryDx=0;entryDy=0;" parent="1" source="627nwjCK-Lk3CUR_q3PW-2" target="RWPysZZRdbQjG4ovfCux-4" edge="1">
          <mxGeometry width="50" height="50" relative="1" as="geometry">
            <mxPoint x="330" y="465" as="sourcePoint" />
            <mxPoint x="380" y="415" as="targetPoint" />
          </mxGeometry>
        </mxCell>
        <mxCell id="RWPysZZRdbQjG4ovfCux-20" value="" style="endArrow=none;html=1;rounded=0;exitX=1;exitY=0.25;exitDx=0;exitDy=0;entryX=0.5;entryY=1;entryDx=0;entryDy=0;" parent="1" source="627nwjCK-Lk3CUR_q3PW-1" target="RWPysZZRdbQjG4ovfCux-6" edge="1">
          <mxGeometry width="50" height="50" relative="1" as="geometry">
            <mxPoint x="20" y="605" as="sourcePoint" />
            <mxPoint x="70" y="555" as="targetPoint" />
          </mxGeometry>
        </mxCell>
        <mxCell id="RWPysZZRdbQjG4ovfCux-21" value="" style="endArrow=none;html=1;rounded=0;entryX=0;entryY=0.5;entryDx=0;entryDy=0;exitX=1;exitY=0.75;exitDx=0;exitDy=0;" parent="1" source="627nwjCK-Lk3CUR_q3PW-1" target="RWPysZZRdbQjG4ovfCux-9" edge="1">
          <mxGeometry width="50" height="50" relative="1" as="geometry">
            <mxPoint x="100" y="695" as="sourcePoint" />
            <mxPoint x="150" y="645" as="targetPoint" />
          </mxGeometry>
        </mxCell>
        <mxCell id="RWPysZZRdbQjG4ovfCux-22" value="" style="endArrow=none;html=1;rounded=0;exitX=1;exitY=0.5;exitDx=0;exitDy=0;entryX=0;entryY=0.5;entryDx=0;entryDy=0;" parent="1" source="627nwjCK-Lk3CUR_q3PW-1" target="RWPysZZRdbQjG4ovfCux-12" edge="1">
          <mxGeometry width="50" height="50" relative="1" as="geometry">
            <mxPoint x="80" y="640" as="sourcePoint" />
            <mxPoint x="130" y="590" as="targetPoint" />
          </mxGeometry>
        </mxCell>
        <mxCell id="RWPysZZRdbQjG4ovfCux-23" value="" style="endArrow=none;html=1;rounded=0;exitX=0.5;exitY=0;exitDx=0;exitDy=0;entryX=1;entryY=1;entryDx=0;entryDy=0;" parent="1" source="RWPysZZRdbQjG4ovfCux-13" target="627nwjCK-Lk3CUR_q3PW-1" edge="1">
          <mxGeometry width="50" height="50" relative="1" as="geometry">
            <mxPoint x="70" y="715" as="sourcePoint" />
            <mxPoint x="120" y="665" as="targetPoint" />
          </mxGeometry>
        </mxCell>
        <mxCell id="RWPysZZRdbQjG4ovfCux-24" value="" style="endArrow=none;html=1;rounded=0;entryX=0.25;entryY=0;entryDx=0;entryDy=0;exitX=1;exitY=1;exitDx=0;exitDy=0;" parent="1" source="RWPysZZRdbQjG4ovfCux-7" target="627nwjCK-Lk3CUR_q3PW-1" edge="1">
          <mxGeometry width="50" height="50" relative="1" as="geometry">
            <mxPoint x="-130" y="560" as="sourcePoint" />
            <mxPoint x="-67.5" y="530" as="targetPoint" />
          </mxGeometry>
        </mxCell>
        <mxCell id="RWPysZZRdbQjG4ovfCux-26" value="" style="endArrow=none;html=1;rounded=0;exitX=1;exitY=0.5;exitDx=0;exitDy=0;entryX=0;entryY=0.75;entryDx=0;entryDy=0;" parent="1" source="RWPysZZRdbQjG4ovfCux-10" target="627nwjCK-Lk3CUR_q3PW-1" edge="1">
          <mxGeometry width="50" height="50" relative="1" as="geometry">
            <mxPoint x="-150" y="705" as="sourcePoint" />
            <mxPoint x="-70" y="640" as="targetPoint" />
          </mxGeometry>
        </mxCell>
        <mxCell id="RWPysZZRdbQjG4ovfCux-29" value="email" style="ellipse;whiteSpace=wrap;html=1;" parent="1" vertex="1">
          <mxGeometry x="145" y="170" width="110" height="40" as="geometry" />
        </mxCell>
        <mxCell id="RWPysZZRdbQjG4ovfCux-30" value="email" style="ellipse;whiteSpace=wrap;html=1;" parent="1" vertex="1">
          <mxGeometry x="-380" y="90" width="110" height="40" as="geometry" />
        </mxCell>
        <mxCell id="RWPysZZRdbQjG4ovfCux-31" value="name" style="ellipse;whiteSpace=wrap;html=1;" parent="1" vertex="1">
          <mxGeometry x="-60" y="50" width="110" height="40" as="geometry" />
        </mxCell>
        <mxCell id="RWPysZZRdbQjG4ovfCux-32" value="&lt;u&gt;author_id&lt;/u&gt;" style="ellipse;whiteSpace=wrap;html=1;" parent="1" vertex="1">
          <mxGeometry x="110" y="50" width="110" height="40" as="geometry" />
        </mxCell>
        <mxCell id="RWPysZZRdbQjG4ovfCux-33" value="&lt;u&gt;user_name&lt;/u&gt;" style="ellipse;whiteSpace=wrap;html=1;" parent="1" vertex="1">
          <mxGeometry x="-500" y="70" width="110" height="40" as="geometry" />
        </mxCell>
        <mxCell id="RWPysZZRdbQjG4ovfCux-36" value="password_hash" style="ellipse;whiteSpace=wrap;html=1;" parent="1" vertex="1">
          <mxGeometry x="-250" y="105" width="110" height="40" as="geometry" />
        </mxCell>
        <mxCell id="RWPysZZRdbQjG4ovfCux-37" value="name" style="ellipse;whiteSpace=wrap;html=1;" parent="1" vertex="1">
          <mxGeometry x="-440" y="20" width="110" height="40" as="geometry" />
        </mxCell>
        <mxCell id="RWPysZZRdbQjG4ovfCux-38" value="&lt;u&gt;user_id&lt;/u&gt;" style="ellipse;whiteSpace=wrap;html=1;" parent="1" vertex="1">
          <mxGeometry x="-300" y="50" width="110" height="40" as="geometry" />
        </mxCell>
        <mxCell id="RWPysZZRdbQjG4ovfCux-47" value="" style="endArrow=none;html=1;rounded=0;exitX=0.636;exitY=1.05;exitDx=0;exitDy=0;exitPerimeter=0;entryX=0.2;entryY=0;entryDx=0;entryDy=0;entryPerimeter=0;" parent="1" source="RWPysZZRdbQjG4ovfCux-33" target="CtvvaNPGMJ7My_9c88Tm-3" edge="1">
          <mxGeometry width="50" height="50" relative="1" as="geometry">
            <mxPoint x="-615" y="295" as="sourcePoint" />
            <mxPoint x="-380" y="210" as="targetPoint" />
          </mxGeometry>
        </mxCell>
        <mxCell id="RWPysZZRdbQjG4ovfCux-48" value="" style="endArrow=none;html=1;rounded=0;exitX=1;exitY=0.25;exitDx=0;exitDy=0;entryX=0.5;entryY=1;entryDx=0;entryDy=0;" parent="1" source="CtvvaNPGMJ7My_9c88Tm-3" target="RWPysZZRdbQjG4ovfCux-36" edge="1">
          <mxGeometry width="50" height="50" relative="1" as="geometry">
            <mxPoint x="-350" y="230" as="sourcePoint" />
            <mxPoint x="-190" y="210" as="targetPoint" />
          </mxGeometry>
        </mxCell>
        <mxCell id="RWPysZZRdbQjG4ovfCux-50" value="" style="endArrow=none;html=1;rounded=0;entryX=0.5;entryY=1;entryDx=0;entryDy=0;" parent="1" source="CtvvaNPGMJ7My_9c88Tm-3" target="RWPysZZRdbQjG4ovfCux-30" edge="1">
          <mxGeometry width="50" height="50" relative="1" as="geometry">
            <mxPoint x="-315" y="255" as="sourcePoint" />
            <mxPoint x="-155" y="235" as="targetPoint" />
          </mxGeometry>
        </mxCell>
        <mxCell id="RWPysZZRdbQjG4ovfCux-51" value="" style="endArrow=none;html=1;rounded=0;exitX=0.5;exitY=0;exitDx=0;exitDy=0;entryX=0.5;entryY=1;entryDx=0;entryDy=0;" parent="1" source="CtvvaNPGMJ7My_9c88Tm-3" target="RWPysZZRdbQjG4ovfCux-38" edge="1">
          <mxGeometry width="50" height="50" relative="1" as="geometry">
            <mxPoint x="-390" y="165" as="sourcePoint" />
            <mxPoint x="-230" y="145" as="targetPoint" />
          </mxGeometry>
        </mxCell>
        <mxCell id="RWPysZZRdbQjG4ovfCux-53" value="" style="endArrow=none;html=1;rounded=0;exitX=0.5;exitY=1;exitDx=0;exitDy=0;entryX=0.25;entryY=0;entryDx=0;entryDy=0;" parent="1" source="RWPysZZRdbQjG4ovfCux-37" target="CtvvaNPGMJ7My_9c88Tm-3" edge="1">
          <mxGeometry width="50" height="50" relative="1" as="geometry">
            <mxPoint x="-515" y="370" as="sourcePoint" />
            <mxPoint x="-380" y="280" as="targetPoint" />
          </mxGeometry>
        </mxCell>
        <mxCell id="RWPysZZRdbQjG4ovfCux-54" value="" style="endArrow=none;html=1;rounded=0;exitX=0.75;exitY=0;exitDx=0;exitDy=0;entryX=0.5;entryY=1;entryDx=0;entryDy=0;" parent="1" source="CtvvaNPGMJ7My_9c88Tm-4" target="RWPysZZRdbQjG4ovfCux-32" edge="1">
          <mxGeometry width="50" height="50" relative="1" as="geometry">
            <mxPoint x="-47.5" y="255" as="sourcePoint" />
            <mxPoint x="87.5" y="165" as="targetPoint" />
          </mxGeometry>
        </mxCell>
        <mxCell id="RWPysZZRdbQjG4ovfCux-56" value="" style="endArrow=none;html=1;rounded=0;exitX=1;exitY=0.5;exitDx=0;exitDy=0;entryX=0;entryY=1;entryDx=0;entryDy=0;" parent="1" source="CtvvaNPGMJ7My_9c88Tm-4" target="RWPysZZRdbQjG4ovfCux-29" edge="1">
          <mxGeometry width="50" height="50" relative="1" as="geometry">
            <mxPoint x="32.5" y="265" as="sourcePoint" />
            <mxPoint x="85" y="190" as="targetPoint" />
          </mxGeometry>
        </mxCell>
        <mxCell id="RWPysZZRdbQjG4ovfCux-57" value="" style="endArrow=none;html=1;rounded=0;entryX=0.5;entryY=1;entryDx=0;entryDy=0;" parent="1" source="CtvvaNPGMJ7My_9c88Tm-4" target="RWPysZZRdbQjG4ovfCux-31" edge="1">
          <mxGeometry width="50" height="50" relative="1" as="geometry">
            <mxPoint x="42.5" y="275" as="sourcePoint" />
            <mxPoint x="95" y="200" as="targetPoint" />
          </mxGeometry>
        </mxCell>
        <mxCell id="RWPysZZRdbQjG4ovfCux-58" value="Location" style="rounded=0;whiteSpace=wrap;html=1;fillColor=#d5e8d4;strokeColor=#82b366;" parent="1" vertex="1">
          <mxGeometry x="400" y="245" width="120" height="60" as="geometry" />
        </mxCell>
        <mxCell id="RWPysZZRdbQjG4ovfCux-59" value="desc" style="ellipse;whiteSpace=wrap;html=1;" parent="1" vertex="1">
          <mxGeometry x="500" y="360" width="110" height="40" as="geometry" />
        </mxCell>
        <mxCell id="RWPysZZRdbQjG4ovfCux-60" value="Latitude" style="ellipse;whiteSpace=wrap;html=1;" parent="1" vertex="1">
          <mxGeometry x="610" y="280" width="110" height="40" as="geometry" />
        </mxCell>
        <mxCell id="RWPysZZRdbQjG4ovfCux-61" value="Longitude" style="ellipse;whiteSpace=wrap;html=1;" parent="1" vertex="1">
          <mxGeometry x="610" y="195" width="110" height="40" as="geometry" />
        </mxCell>
        <mxCell id="RWPysZZRdbQjG4ovfCux-63" value="District" style="ellipse;whiteSpace=wrap;html=1;" parent="1" vertex="1">
          <mxGeometry x="470" y="140" width="110" height="40" as="geometry" />
        </mxCell>
        <mxCell id="RWPysZZRdbQjG4ovfCux-65" value="&lt;u&gt;Location_id&lt;/u&gt;" style="ellipse;whiteSpace=wrap;html=1;" parent="1" vertex="1">
          <mxGeometry x="320" y="145" width="110" height="40" as="geometry" />
        </mxCell>
        <mxCell id="RWPysZZRdbQjG4ovfCux-66" value="" style="endArrow=none;html=1;rounded=0;exitX=0.75;exitY=0;exitDx=0;exitDy=0;entryX=0.5;entryY=1;entryDx=0;entryDy=0;" parent="1" source="RWPysZZRdbQjG4ovfCux-58" target="RWPysZZRdbQjG4ovfCux-63" edge="1">
          <mxGeometry width="50" height="50" relative="1" as="geometry">
            <mxPoint x="450" y="230.73000000000002" as="sourcePoint" />
            <mxPoint x="503.96754560009595" y="195.00127940737207" as="targetPoint" />
          </mxGeometry>
        </mxCell>
        <mxCell id="RWPysZZRdbQjG4ovfCux-67" value="" style="endArrow=none;html=1;rounded=0;exitX=1;exitY=0.25;exitDx=0;exitDy=0;entryX=0;entryY=0.5;entryDx=0;entryDy=0;" parent="1" source="RWPysZZRdbQjG4ovfCux-58" target="RWPysZZRdbQjG4ovfCux-61" edge="1">
          <mxGeometry width="50" height="50" relative="1" as="geometry">
            <mxPoint x="545" y="310" as="sourcePoint" />
            <mxPoint x="580" y="245" as="targetPoint" />
          </mxGeometry>
        </mxCell>
        <mxCell id="RWPysZZRdbQjG4ovfCux-68" value="" style="endArrow=none;html=1;rounded=0;exitX=1;exitY=0.5;exitDx=0;exitDy=0;entryX=0;entryY=0.5;entryDx=0;entryDy=0;" parent="1" source="RWPysZZRdbQjG4ovfCux-58" target="RWPysZZRdbQjG4ovfCux-60" edge="1">
          <mxGeometry width="50" height="50" relative="1" as="geometry">
            <mxPoint x="510" y="265" as="sourcePoint" />
            <mxPoint x="545" y="200" as="targetPoint" />
          </mxGeometry>
        </mxCell>
        <mxCell id="RWPysZZRdbQjG4ovfCux-69" value="" style="endArrow=none;html=1;rounded=0;exitX=0.75;exitY=1;exitDx=0;exitDy=0;entryX=0.5;entryY=0;entryDx=0;entryDy=0;" parent="1" source="RWPysZZRdbQjG4ovfCux-58" target="RWPysZZRdbQjG4ovfCux-59" edge="1">
          <mxGeometry width="50" height="50" relative="1" as="geometry">
            <mxPoint x="490" y="325" as="sourcePoint" />
            <mxPoint x="580" y="350" as="targetPoint" />
          </mxGeometry>
        </mxCell>
        <mxCell id="RWPysZZRdbQjG4ovfCux-70" value="" style="endArrow=none;html=1;rounded=0;entryX=0.25;entryY=0;entryDx=0;entryDy=0;" parent="1" source="RWPysZZRdbQjG4ovfCux-65" target="RWPysZZRdbQjG4ovfCux-58" edge="1">
          <mxGeometry width="50" height="50" relative="1" as="geometry">
            <mxPoint x="540" y="295" as="sourcePoint" />
            <mxPoint x="630" y="320" as="targetPoint" />
          </mxGeometry>
        </mxCell>
        <mxCell id="RWPysZZRdbQjG4ovfCux-86" value="" style="endArrow=none;html=1;rounded=0;entryX=0;entryY=0.5;entryDx=0;entryDy=0;exitX=0;exitY=0.5;exitDx=0;exitDy=0;" parent="1" target="627nwjCK-Lk3CUR_q3PW-1" edge="1">
          <mxGeometry width="50" height="50" relative="1" as="geometry">
            <mxPoint x="-290" y="670" as="sourcePoint" />
            <mxPoint x="-27.5" y="605" as="targetPoint" />
          </mxGeometry>
        </mxCell>
        <mxCell id="RWPysZZRdbQjG4ovfCux-98" style="edgeStyle=orthogonalEdgeStyle;rounded=0;orthogonalLoop=1;jettySize=auto;html=1;exitX=1;exitY=0.5;exitDx=0;exitDy=0;entryX=1;entryY=0.5;entryDx=0;entryDy=0;" parent="1" source="RWPysZZRdbQjG4ovfCux-95" target="RWPysZZRdbQjG4ovfCux-95" edge="1">
          <mxGeometry relative="1" as="geometry" />
        </mxCell>
        <mxCell id="RWPysZZRdbQjG4ovfCux-95" value="Stays" style="rhombus;whiteSpace=wrap;html=1;fillColor=#ffe6cc;strokeColor=#d79b00;" parent="1" vertex="1">
          <mxGeometry x="130" y="235" width="130" height="80" as="geometry" />
        </mxCell>
        <mxCell id="RWPysZZRdbQjG4ovfCux-96" value="" style="endArrow=none;html=1;rounded=0;entryX=0;entryY=0.5;entryDx=0;entryDy=0;exitX=1;exitY=0.75;exitDx=0;exitDy=0;" parent="1" source="CtvvaNPGMJ7My_9c88Tm-3" target="RWPysZZRdbQjG4ovfCux-95" edge="1">
          <mxGeometry width="50" height="50" relative="1" as="geometry">
            <mxPoint x="20" y="470" as="sourcePoint" />
            <mxPoint x="70" y="420" as="targetPoint" />
          </mxGeometry>
        </mxCell>
        <mxCell id="Da7OMFpt_dQ6Uy7CfJBs-6" style="edgeStyle=orthogonalEdgeStyle;rounded=0;orthogonalLoop=1;jettySize=auto;html=1;exitX=0.5;exitY=1;exitDx=0;exitDy=0;" parent="1" source="RWPysZZRdbQjG4ovfCux-3" target="RWPysZZRdbQjG4ovfCux-3" edge="1">
          <mxGeometry relative="1" as="geometry" />
        </mxCell>
        <mxCell id="XAAd1IZyLiw4F6XBaVbM-4" value="" style="endArrow=classic;html=1;rounded=0;entryX=0.092;entryY=1;entryDx=0;entryDy=0;entryPerimeter=0;" parent="1" target="RWPysZZRdbQjG4ovfCux-58" edge="1">
          <mxGeometry width="50" height="50" relative="1" as="geometry">
            <mxPoint x="-140" y="370" as="sourcePoint" />
            <mxPoint y="440" as="targetPoint" />
          </mxGeometry>
        </mxCell>
        <mxCell id="XAAd1IZyLiw4F6XBaVbM-5" value="" style="endArrow=none;html=1;rounded=0;exitX=1;exitY=0.5;exitDx=0;exitDy=0;" parent="1" source="CtvvaNPGMJ7My_9c88Tm-22" edge="1">
          <mxGeometry width="50" height="50" relative="1" as="geometry">
            <mxPoint x="-10" y="490" as="sourcePoint" />
            <mxPoint x="-140" y="370" as="targetPoint" />
          </mxGeometry>
        </mxCell>
        <mxCell id="XAAd1IZyLiw4F6XBaVbM-6" value="Situated" style="rhombus;whiteSpace=wrap;html=1;fillColor=#ffe6cc;strokeColor=#d79b00;" parent="1" vertex="1">
          <mxGeometry x="390" y="345" width="80" height="80" as="geometry" />
        </mxCell>
        <mxCell id="XAAd1IZyLiw4F6XBaVbM-7" value="" style="endArrow=none;html=1;rounded=0;entryX=0.5;entryY=1;entryDx=0;entryDy=0;exitX=0.75;exitY=0;exitDx=0;exitDy=0;" parent="1" source="627nwjCK-Lk3CUR_q3PW-2" target="XAAd1IZyLiw4F6XBaVbM-6" edge="1">
          <mxGeometry width="50" height="50" relative="1" as="geometry">
            <mxPoint x="250" y="440" as="sourcePoint" />
            <mxPoint x="300" y="390" as="targetPoint" />
          </mxGeometry>
        </mxCell>
        <mxCell id="XAAd1IZyLiw4F6XBaVbM-12" value="Price" style="ellipse;whiteSpace=wrap;html=1;" parent="1" vertex="1">
          <mxGeometry x="-380" y="655" width="90" height="40" as="geometry" />
        </mxCell>
        <mxCell id="XAAd1IZyLiw4F6XBaVbM-13" value="" style="endArrow=classic;html=1;rounded=0;entryX=0.583;entryY=1.083;entryDx=0;entryDy=0;entryPerimeter=0;exitX=0.5;exitY=0;exitDx=0;exitDy=0;" parent="1" source="CtvvaNPGMJ7My_9c88Tm-22" target="CtvvaNPGMJ7My_9c88Tm-3" edge="1">
          <mxGeometry width="50" height="50" relative="1" as="geometry">
            <mxPoint x="-160" y="450" as="sourcePoint" />
            <mxPoint x="-110" y="400" as="targetPoint" />
          </mxGeometry>
        </mxCell>
        <mxCell id="XAAd1IZyLiw4F6XBaVbM-14" value="" style="endArrow=classic;html=1;rounded=0;entryX=-0.017;entryY=0.367;entryDx=0;entryDy=0;entryPerimeter=0;exitX=1;exitY=0.5;exitDx=0;exitDy=0;" parent="1" source="CtvvaNPGMJ7My_9c88Tm-10" target="627nwjCK-Lk3CUR_q3PW-2" edge="1">
          <mxGeometry width="50" height="50" relative="1" as="geometry">
            <mxPoint x="50" y="430" as="sourcePoint" />
            <mxPoint x="100" y="380" as="targetPoint" />
          </mxGeometry>
        </mxCell>
        <mxCell id="XAAd1IZyLiw4F6XBaVbM-18" value="" style="endArrow=none;html=1;rounded=0;" parent="1" edge="1">
          <mxGeometry width="50" height="50" relative="1" as="geometry">
            <mxPoint x="-480" y="910" as="sourcePoint" />
            <mxPoint x="-480" y="240" as="targetPoint" />
          </mxGeometry>
        </mxCell>
        <mxCell id="CtvvaNPGMJ7My_9c88Tm-28" value="Reviewd" style="rhombus;whiteSpace=wrap;html=1;fillColor=#ffe6cc;strokeColor=#d79b00;" parent="1" vertex="1">
          <mxGeometry x="-47.5" y="860" width="80" height="80" as="geometry" />
        </mxCell>
        <mxCell id="XAAd1IZyLiw4F6XBaVbM-21" value="" style="endArrow=none;html=1;rounded=0;entryX=0;entryY=0.5;entryDx=0;entryDy=0;" parent="1" target="CtvvaNPGMJ7My_9c88Tm-28" edge="1">
          <mxGeometry width="50" height="50" relative="1" as="geometry">
            <mxPoint x="-480" y="910" as="sourcePoint" />
            <mxPoint x="-100" y="870" as="targetPoint" />
          </mxGeometry>
        </mxCell>
        <mxCell id="RWPysZZRdbQjG4ovfCux-71" value="&lt;u&gt;Review_id&lt;/u&gt;" style="ellipse;whiteSpace=wrap;html=1;" parent="1" vertex="1">
          <mxGeometry x="20" y="1050" width="110" height="40" as="geometry" />
        </mxCell>
        <mxCell id="RWPysZZRdbQjG4ovfCux-72" value="Downvotes" style="ellipse;whiteSpace=wrap;html=1;" parent="1" vertex="1">
          <mxGeometry x="-140" y="1050" width="110" height="40" as="geometry" />
        </mxCell>
        <mxCell id="RWPysZZRdbQjG4ovfCux-73" value="Upvotes" style="ellipse;whiteSpace=wrap;html=1;" parent="1" vertex="1">
          <mxGeometry x="-62.5" y="1100" width="110" height="40" as="geometry" />
        </mxCell>
        <mxCell id="RWPysZZRdbQjG4ovfCux-79" value="" style="endArrow=none;html=1;rounded=0;entryX=0.644;entryY=0.863;entryDx=0;entryDy=0;entryPerimeter=0;" parent="1" source="RWPysZZRdbQjG4ovfCux-71" target="CtvvaNPGMJ7My_9c88Tm-28" edge="1">
          <mxGeometry width="50" height="50" relative="1" as="geometry">
            <mxPoint x="238.23754560003908" y="1192.8687205926071" as="sourcePoint" />
            <mxPoint x="16.980000000000018" y="1088.98" as="targetPoint" />
          </mxGeometry>
        </mxCell>
        <mxCell id="RWPysZZRdbQjG4ovfCux-80" value="" style="endArrow=none;html=1;rounded=0;entryX=0.5;entryY=1;entryDx=0;entryDy=0;" parent="1" source="RWPysZZRdbQjG4ovfCux-73" target="CtvvaNPGMJ7My_9c88Tm-28" edge="1">
          <mxGeometry width="50" height="50" relative="1" as="geometry">
            <mxPoint x="71.61067793711527" y="1130.002148894883" as="sourcePoint" />
            <mxPoint y="1095" as="targetPoint" />
          </mxGeometry>
        </mxCell>
        <mxCell id="RWPysZZRdbQjG4ovfCux-81" value="" style="endArrow=none;html=1;rounded=0;exitX=1;exitY=0;exitDx=0;exitDy=0;" parent="1" source="RWPysZZRdbQjG4ovfCux-72" target="CtvvaNPGMJ7My_9c88Tm-28" edge="1">
          <mxGeometry width="50" height="50" relative="1" as="geometry">
            <mxPoint x="-99.99630797096387" y="1114.9970778983738" as="sourcePoint" />
            <mxPoint x="-13.019999999999982" y="1090" as="targetPoint" />
          </mxGeometry>
        </mxCell>
        <mxCell id="XAAd1IZyLiw4F6XBaVbM-15" value="Rating" style="ellipse;whiteSpace=wrap;html=1;" parent="1" vertex="1">
          <mxGeometry x="-167.5" y="990" width="100" height="40" as="geometry" />
        </mxCell>
        <mxCell id="XAAd1IZyLiw4F6XBaVbM-16" value="" style="endArrow=none;html=1;rounded=0;exitX=0.655;exitY=0.05;exitDx=0;exitDy=0;exitPerimeter=0;" parent="1" source="XAAd1IZyLiw4F6XBaVbM-15" target="CtvvaNPGMJ7My_9c88Tm-28" edge="1">
          <mxGeometry width="50" height="50" relative="1" as="geometry">
            <mxPoint x="-30" y="1095" as="sourcePoint" />
            <mxPoint x="-67.5" y="1060" as="targetPoint" />
          </mxGeometry>
        </mxCell>
        <mxCell id="XAAd1IZyLiw4F6XBaVbM-23" value="" style="endArrow=classic;html=1;rounded=0;exitX=0.5;exitY=0;exitDx=0;exitDy=0;entryX=0.333;entryY=1.033;entryDx=0;entryDy=0;entryPerimeter=0;" parent="1" source="XAAd1IZyLiw4F6XBaVbM-6" target="RWPysZZRdbQjG4ovfCux-58" edge="1">
          <mxGeometry width="50" height="50" relative="1" as="geometry">
            <mxPoint x="560" y="410" as="sourcePoint" />
            <mxPoint x="610" y="360" as="targetPoint" />
          </mxGeometry>
        </mxCell>
        <mxCell id="XAAd1IZyLiw4F6XBaVbM-24" value="" style="endArrow=classic;html=1;rounded=0;entryX=0;entryY=0.5;entryDx=0;entryDy=0;exitX=1;exitY=0.5;exitDx=0;exitDy=0;" parent="1" source="RWPysZZRdbQjG4ovfCux-95" target="RWPysZZRdbQjG4ovfCux-58" edge="1">
          <mxGeometry width="50" height="50" relative="1" as="geometry">
            <mxPoint x="90" y="300" as="sourcePoint" />
            <mxPoint x="140" y="250" as="targetPoint" />
          </mxGeometry>
        </mxCell>
        <mxCell id="XAAd1IZyLiw4F6XBaVbM-25" value="price" style="ellipse;whiteSpace=wrap;html=1;" parent="1" vertex="1">
          <mxGeometry x="-440" y="400" width="80" height="30" as="geometry" />
        </mxCell>
        <mxCell id="XAAd1IZyLiw4F6XBaVbM-26" value="payment_&lt;br&gt;method" style="ellipse;whiteSpace=wrap;html=1;" parent="1" vertex="1">
          <mxGeometry x="-440" y="505" width="80" height="35" as="geometry" />
        </mxCell>
        <mxCell id="XAAd1IZyLiw4F6XBaVbM-27" value="" style="endArrow=none;html=1;rounded=0;exitX=1;exitY=0.5;exitDx=0;exitDy=0;entryX=0;entryY=0.5;entryDx=0;entryDy=0;" parent="1" source="XAAd1IZyLiw4F6XBaVbM-25" target="CtvvaNPGMJ7My_9c88Tm-22" edge="1">
          <mxGeometry width="50" height="50" relative="1" as="geometry">
            <mxPoint x="-120" y="470" as="sourcePoint" />
            <mxPoint x="-70" y="420" as="targetPoint" />
          </mxGeometry>
        </mxCell>
        <mxCell id="XAAd1IZyLiw4F6XBaVbM-28" value="" style="endArrow=none;html=1;rounded=0;exitX=1;exitY=0.5;exitDx=0;exitDy=0;entryX=0.125;entryY=0.675;entryDx=0;entryDy=0;entryPerimeter=0;" parent="1" source="XAAd1IZyLiw4F6XBaVbM-26" target="CtvvaNPGMJ7My_9c88Tm-22" edge="1">
          <mxGeometry width="50" height="50" relative="1" as="geometry">
            <mxPoint x="-120" y="470" as="sourcePoint" />
            <mxPoint x="-70" y="420" as="targetPoint" />
          </mxGeometry>
        </mxCell>
        <mxCell id="XAAd1IZyLiw4F6XBaVbM-29" value="" style="endArrow=none;html=1;rounded=0;entryX=0;entryY=0.5;entryDx=0;entryDy=0;" parent="1" target="CtvvaNPGMJ7My_9c88Tm-3" edge="1">
          <mxGeometry width="50" height="50" relative="1" as="geometry">
            <mxPoint x="-480" y="240" as="sourcePoint" />
            <mxPoint x="-80" y="360" as="targetPoint" />
          </mxGeometry>
        </mxCell>
        <mxCell id="XAAd1IZyLiw4F6XBaVbM-30" value="" style="endArrow=none;html=1;rounded=0;entryX=0.5;entryY=1;entryDx=0;entryDy=0;" parent="1" source="CtvvaNPGMJ7My_9c88Tm-28" target="627nwjCK-Lk3CUR_q3PW-1" edge="1">
          <mxGeometry width="50" height="50" relative="1" as="geometry">
            <mxPoint x="20" y="730" as="sourcePoint" />
            <mxPoint x="70" y="680" as="targetPoint" />
          </mxGeometry>
        </mxCell>
        <mxCell id="jB8kd7WwEVhfLAxKkKjl-1" value="Posts" style="rounded=0;whiteSpace=wrap;html=1;" vertex="1" parent="1">
          <mxGeometry x="-760" y="400" width="120" height="60" as="geometry" />
        </mxCell>
        <mxCell id="jB8kd7WwEVhfLAxKkKjl-2" value="makes" style="rhombus;whiteSpace=wrap;html=1;" vertex="1" parent="1">
          <mxGeometry x="-580" y="335" width="80" height="80" as="geometry" />
        </mxCell>
        <mxCell id="jB8kd7WwEVhfLAxKkKjl-3" value="" style="endArrow=none;html=1;rounded=0;" edge="1" parent="1" target="jB8kd7WwEVhfLAxKkKjl-2">
          <mxGeometry width="50" height="50" relative="1" as="geometry">
            <mxPoint x="-640" y="440" as="sourcePoint" />
            <mxPoint x="-590" y="390" as="targetPoint" />
          </mxGeometry>
        </mxCell>
        <mxCell id="jB8kd7WwEVhfLAxKkKjl-5" value="Comments" style="rounded=0;whiteSpace=wrap;html=1;" vertex="1" parent="1">
          <mxGeometry x="-760" y="605" width="120" height="60" as="geometry" />
        </mxCell>
        <mxCell id="jB8kd7WwEVhfLAxKkKjl-44" value="" style="edgeStyle=orthogonalEdgeStyle;rounded=0;orthogonalLoop=1;jettySize=auto;html=1;" edge="1" parent="1" source="jB8kd7WwEVhfLAxKkKjl-6" target="jB8kd7WwEVhfLAxKkKjl-1">
          <mxGeometry relative="1" as="geometry" />
        </mxCell>
        <mxCell id="jB8kd7WwEVhfLAxKkKjl-6" value="Has" style="rhombus;whiteSpace=wrap;html=1;" vertex="1" parent="1">
          <mxGeometry x="-740" y="485" width="80" height="80" as="geometry" />
        </mxCell>
        <mxCell id="jB8kd7WwEVhfLAxKkKjl-8" value="" style="endArrow=none;html=1;rounded=0;exitX=0.5;exitY=0;exitDx=0;exitDy=0;entryX=0.5;entryY=1;entryDx=0;entryDy=0;" edge="1" parent="1" source="jB8kd7WwEVhfLAxKkKjl-5" target="jB8kd7WwEVhfLAxKkKjl-6">
          <mxGeometry width="50" height="50" relative="1" as="geometry">
            <mxPoint x="-470" y="460" as="sourcePoint" />
            <mxPoint x="-420" y="410" as="targetPoint" />
          </mxGeometry>
        </mxCell>
        <mxCell id="jB8kd7WwEVhfLAxKkKjl-9" value="Reply" style="rhombus;whiteSpace=wrap;html=1;" vertex="1" parent="1">
          <mxGeometry x="-600" y="595" width="80" height="80" as="geometry" />
        </mxCell>
        <mxCell id="jB8kd7WwEVhfLAxKkKjl-10" value="" style="endArrow=none;html=1;rounded=0;" edge="1" parent="1">
          <mxGeometry width="50" height="50" relative="1" as="geometry">
            <mxPoint x="-660" y="700" as="sourcePoint" />
            <mxPoint x="-560" y="700" as="targetPoint" />
          </mxGeometry>
        </mxCell>
        <mxCell id="jB8kd7WwEVhfLAxKkKjl-11" value="" style="endArrow=none;html=1;rounded=0;" edge="1" parent="1">
          <mxGeometry width="50" height="50" relative="1" as="geometry">
            <mxPoint x="-660" y="580" as="sourcePoint" />
            <mxPoint x="-560" y="580" as="targetPoint" />
          </mxGeometry>
        </mxCell>
        <mxCell id="jB8kd7WwEVhfLAxKkKjl-12" value="" style="endArrow=none;html=1;rounded=0;entryX=0.5;entryY=1;entryDx=0;entryDy=0;" edge="1" parent="1" target="jB8kd7WwEVhfLAxKkKjl-9">
          <mxGeometry width="50" height="50" relative="1" as="geometry">
            <mxPoint x="-560" y="700" as="sourcePoint" />
            <mxPoint x="-530" y="630" as="targetPoint" />
          </mxGeometry>
        </mxCell>
        <mxCell id="jB8kd7WwEVhfLAxKkKjl-13" value="" style="endArrow=none;html=1;rounded=0;entryX=0.5;entryY=0;entryDx=0;entryDy=0;" edge="1" parent="1" target="jB8kd7WwEVhfLAxKkKjl-9">
          <mxGeometry width="50" height="50" relative="1" as="geometry">
            <mxPoint x="-560" y="580" as="sourcePoint" />
            <mxPoint x="-530" y="630" as="targetPoint" />
          </mxGeometry>
        </mxCell>
        <mxCell id="jB8kd7WwEVhfLAxKkKjl-14" value="" style="endArrow=classic;html=1;rounded=0;entryX=0.825;entryY=1;entryDx=0;entryDy=0;entryPerimeter=0;" edge="1" parent="1" target="jB8kd7WwEVhfLAxKkKjl-5">
          <mxGeometry width="50" height="50" relative="1" as="geometry">
            <mxPoint x="-660" y="700" as="sourcePoint" />
            <mxPoint x="-530" y="630" as="targetPoint" />
          </mxGeometry>
        </mxCell>
        <mxCell id="jB8kd7WwEVhfLAxKkKjl-16" value="" style="endArrow=none;html=1;rounded=0;" edge="1" parent="1">
          <mxGeometry width="50" height="50" relative="1" as="geometry">
            <mxPoint x="-660" y="580" as="sourcePoint" />
            <mxPoint x="-660" y="610" as="targetPoint" />
          </mxGeometry>
        </mxCell>
        <mxCell id="jB8kd7WwEVhfLAxKkKjl-17" value="parent" style="text;html=1;strokeColor=none;fillColor=none;align=center;verticalAlign=middle;whiteSpace=wrap;rounded=0;" vertex="1" parent="1">
          <mxGeometry x="-640" y="700" width="60" height="30" as="geometry" />
        </mxCell>
        <mxCell id="jB8kd7WwEVhfLAxKkKjl-18" value="reply_of" style="text;html=1;strokeColor=none;fillColor=none;align=center;verticalAlign=middle;whiteSpace=wrap;rounded=0;" vertex="1" parent="1">
          <mxGeometry x="-640" y="555" width="60" height="30" as="geometry" />
        </mxCell>
        <mxCell id="jB8kd7WwEVhfLAxKkKjl-30" value="Comments" style="rounded=0;whiteSpace=wrap;html=1;" vertex="1" parent="1">
          <mxGeometry x="-430" y="1082" width="120" height="60" as="geometry" />
        </mxCell>
        <mxCell id="jB8kd7WwEVhfLAxKkKjl-31" value="Has" style="rhombus;whiteSpace=wrap;html=1;" vertex="1" parent="1">
          <mxGeometry x="-410" y="962" width="80" height="80" as="geometry" />
        </mxCell>
        <mxCell id="jB8kd7WwEVhfLAxKkKjl-32" value="" style="endArrow=none;html=1;rounded=0;exitX=0.5;exitY=0;exitDx=0;exitDy=0;entryX=0.5;entryY=1;entryDx=0;entryDy=0;" edge="1" parent="1" source="jB8kd7WwEVhfLAxKkKjl-30" target="jB8kd7WwEVhfLAxKkKjl-31">
          <mxGeometry width="50" height="50" relative="1" as="geometry">
            <mxPoint x="-140" y="937" as="sourcePoint" />
            <mxPoint x="-90" y="887" as="targetPoint" />
          </mxGeometry>
        </mxCell>
        <mxCell id="jB8kd7WwEVhfLAxKkKjl-33" value="Reply" style="rhombus;whiteSpace=wrap;html=1;" vertex="1" parent="1">
          <mxGeometry x="-270" y="1072" width="80" height="80" as="geometry" />
        </mxCell>
        <mxCell id="jB8kd7WwEVhfLAxKkKjl-34" value="" style="endArrow=none;html=1;rounded=0;" edge="1" parent="1">
          <mxGeometry width="50" height="50" relative="1" as="geometry">
            <mxPoint x="-330" y="1177" as="sourcePoint" />
            <mxPoint x="-230" y="1177" as="targetPoint" />
          </mxGeometry>
        </mxCell>
        <mxCell id="jB8kd7WwEVhfLAxKkKjl-35" value="" style="endArrow=none;html=1;rounded=0;" edge="1" parent="1">
          <mxGeometry width="50" height="50" relative="1" as="geometry">
            <mxPoint x="-330" y="1057" as="sourcePoint" />
            <mxPoint x="-230" y="1057" as="targetPoint" />
          </mxGeometry>
        </mxCell>
        <mxCell id="jB8kd7WwEVhfLAxKkKjl-36" value="" style="endArrow=none;html=1;rounded=0;entryX=0.5;entryY=1;entryDx=0;entryDy=0;" edge="1" parent="1" target="jB8kd7WwEVhfLAxKkKjl-33">
          <mxGeometry width="50" height="50" relative="1" as="geometry">
            <mxPoint x="-230" y="1177" as="sourcePoint" />
            <mxPoint x="-200" y="1107" as="targetPoint" />
          </mxGeometry>
        </mxCell>
        <mxCell id="jB8kd7WwEVhfLAxKkKjl-37" value="" style="endArrow=none;html=1;rounded=0;entryX=0.5;entryY=0;entryDx=0;entryDy=0;" edge="1" parent="1" target="jB8kd7WwEVhfLAxKkKjl-33">
          <mxGeometry width="50" height="50" relative="1" as="geometry">
            <mxPoint x="-230" y="1057" as="sourcePoint" />
            <mxPoint x="-200" y="1107" as="targetPoint" />
          </mxGeometry>
        </mxCell>
        <mxCell id="jB8kd7WwEVhfLAxKkKjl-38" value="" style="endArrow=classic;html=1;rounded=0;entryX=0.825;entryY=1;entryDx=0;entryDy=0;entryPerimeter=0;" edge="1" parent="1" target="jB8kd7WwEVhfLAxKkKjl-30">
          <mxGeometry width="50" height="50" relative="1" as="geometry">
            <mxPoint x="-330" y="1177" as="sourcePoint" />
            <mxPoint x="-200" y="1107" as="targetPoint" />
          </mxGeometry>
        </mxCell>
        <mxCell id="jB8kd7WwEVhfLAxKkKjl-39" value="" style="endArrow=none;html=1;rounded=0;" edge="1" parent="1">
          <mxGeometry width="50" height="50" relative="1" as="geometry">
            <mxPoint x="-330" y="1057" as="sourcePoint" />
            <mxPoint x="-330" y="1087" as="targetPoint" />
          </mxGeometry>
        </mxCell>
        <mxCell id="jB8kd7WwEVhfLAxKkKjl-40" value="reply_of" style="text;html=1;strokeColor=none;fillColor=none;align=center;verticalAlign=middle;whiteSpace=wrap;rounded=0;" vertex="1" parent="1">
          <mxGeometry x="-310" y="1032" width="60" height="30" as="geometry" />
        </mxCell>
        <mxCell id="jB8kd7WwEVhfLAxKkKjl-42" value="" style="endArrow=classic;html=1;rounded=0;entryX=0.144;entryY=0.613;entryDx=0;entryDy=0;entryPerimeter=0;" edge="1" parent="1" target="CtvvaNPGMJ7My_9c88Tm-28">
          <mxGeometry width="50" height="50" relative="1" as="geometry">
            <mxPoint x="-330" y="1000" as="sourcePoint" />
            <mxPoint x="-350" y="970" as="targetPoint" />
          </mxGeometry>
        </mxCell>
        <mxCell id="jB8kd7WwEVhfLAxKkKjl-43" value="" style="endArrow=classic;html=1;rounded=0;exitX=1;exitY=0.5;exitDx=0;exitDy=0;entryX=0;entryY=1;entryDx=0;entryDy=0;" edge="1" parent="1" source="jB8kd7WwEVhfLAxKkKjl-2" target="CtvvaNPGMJ7My_9c88Tm-3">
          <mxGeometry width="50" height="50" relative="1" as="geometry">
            <mxPoint x="-430" y="390" as="sourcePoint" />
            <mxPoint x="-380" y="340" as="targetPoint" />
          </mxGeometry>
        </mxCell>
      </root>
    </mxGraphModel>
  </diagram>
</mxfile>
